<?xml version="1.0" standalone="no"?>
<!DOCTYPE svg PUBLIC "-//W3C//DTD SVG 20010904//EN"
 "http://www.w3.org/TR/2001/REC-SVG-20010904/DTD/svg10.dtd">
<svg version="1.0" xmlns="http://www.w3.org/2000/svg"
 width="32px" height="32px" viewBox="0 0 200.000000 200.000000"
 preserveAspectRatio="xMidYMid meet">
<metadata>
Created by potrace 1.15, written by Peter Selinger 2001-2017
</metadata>
<g transform="translate(0.000000,200.000000) scale(0.100000,-0.100000)"
fill="#000000" stroke="none">
<path d="M868 1940 c-210 -34 -394 -126 -538 -270 -120 -120 -211 -280 -252
-446 -31 -125 -31 -323 0 -448 85 -344 354 -613 698 -698 125 -31 323 -31 448
0 344 85 613 354 698 698 31 125 31 323 0 448 -85 342 -356 614 -693 696 -96
23 -277 33 -361 20z m48 -308 c72 -49 132 -102 174 -158 24 -30 45 -54 49 -54
3 0 54 40 113 90 59 49 109 86 111 82 3 -4 5 -48 6 -99 l2 -92 -78 -61 c-43
-34 -77 -67 -76 -74 0 -6 11 -47 22 -90 29 -108 29 -254 0 -362 -12 -43 -23
-88 -25 -99 -4 -15 9 -29 48 -58 107 -75 106 -74 106 -182 0 -52 -3 -95 -7
-95 -4 0 -34 23 -66 51 -33 27 -84 69 -113 91 l-53 41 -32 -39 c-45 -56 -114
-120 -174 -159 -28 -19 -54 -35 -57 -35 -3 0 15 28 40 63 45 60 124 209 124
233 0 33 -366 233 -577 314 -62 24 -113 47 -113 50 0 4 19 12 43 19 115 35
392 167 536 256 140 87 130 69 85 166 -21 46 -62 116 -91 156 -29 40 -49 73
-45 73 4 0 25 -12 48 -28z"/>
<path d="M995 1128 c-44 -28 -122 -70 -173 -95 l-93 -45 113 -57 c62 -31 141
-75 175 -99 l62 -42 8 48 c11 64 9 303 -3 324 -8 14 -19 10 -89 -34z"/>
</g>
</svg>
